<mxfile host="app.diagrams.net" agent="Mozilla/5.0 (Windows NT 10.0; Win64; x64) AppleWebKit/537.36 (KHTML, like Gecko) Chrome/127.0.0.0 Safari/537.36" version="24.7.6">
  <diagram name="Page-1" id="hLKXbEDNyPxsCWNJpJsB">
    <mxGraphModel dx="1290" dy="565" grid="1" gridSize="10" guides="1" tooltips="1" connect="1" arrows="1" fold="1" page="1" pageScale="1" pageWidth="827" pageHeight="1169" math="0" shadow="0">
      <root>
        <mxCell id="0" />
        <mxCell id="1" parent="0" />
        <mxCell id="FwtnNAAycW-2ijWg4gM6-1" value="SOCIAL MEDIA&lt;div&gt;APP&lt;/div&gt;" style="ellipse;whiteSpace=wrap;html=1;aspect=fixed;" vertex="1" parent="1">
          <mxGeometry x="334" y="690" width="160" height="160" as="geometry" />
        </mxCell>
        <mxCell id="FwtnNAAycW-2ijWg4gM6-2" value="USER-2" style="rounded=0;whiteSpace=wrap;html=1;" vertex="1" parent="1">
          <mxGeometry x="640" y="1040" width="120" height="60" as="geometry" />
        </mxCell>
        <mxCell id="FwtnNAAycW-2ijWg4gM6-3" value="USER-1" style="rounded=0;whiteSpace=wrap;html=1;" vertex="1" parent="1">
          <mxGeometry x="60" y="450" width="120" height="60" as="geometry" />
        </mxCell>
        <mxCell id="FwtnNAAycW-2ijWg4gM6-4" value="" style="endArrow=classic;html=1;rounded=0;exitX=1;exitY=0.25;exitDx=0;exitDy=0;entryX=0.415;entryY=0.019;entryDx=0;entryDy=0;entryPerimeter=0;" edge="1" parent="1" source="FwtnNAAycW-2ijWg4gM6-3" target="FwtnNAAycW-2ijWg4gM6-1">
          <mxGeometry width="50" height="50" relative="1" as="geometry">
            <mxPoint x="390" y="670" as="sourcePoint" />
            <mxPoint x="390" y="465" as="targetPoint" />
            <Array as="points">
              <mxPoint x="400" y="465" />
            </Array>
          </mxGeometry>
        </mxCell>
        <mxCell id="FwtnNAAycW-2ijWg4gM6-5" value="Like a post" style="edgeLabel;html=1;align=center;verticalAlign=middle;resizable=0;points=[];" vertex="1" connectable="0" parent="FwtnNAAycW-2ijWg4gM6-4">
          <mxGeometry x="-0.5768" relative="1" as="geometry">
            <mxPoint as="offset" />
          </mxGeometry>
        </mxCell>
        <mxCell id="FwtnNAAycW-2ijWg4gM6-6" value="" style="endArrow=classic;html=1;rounded=0;entryX=1;entryY=0.75;entryDx=0;entryDy=0;exitX=0.225;exitY=0.079;exitDx=0;exitDy=0;exitPerimeter=0;" edge="1" parent="1" source="FwtnNAAycW-2ijWg4gM6-1" target="FwtnNAAycW-2ijWg4gM6-3">
          <mxGeometry width="50" height="50" relative="1" as="geometry">
            <mxPoint x="280" y="690" as="sourcePoint" />
            <mxPoint x="440" y="620" as="targetPoint" />
            <Array as="points">
              <mxPoint x="370" y="495" />
            </Array>
          </mxGeometry>
        </mxCell>
        <mxCell id="FwtnNAAycW-2ijWg4gM6-14" value="Receive message" style="edgeLabel;html=1;align=center;verticalAlign=middle;resizable=0;points=[];" vertex="1" connectable="0" parent="FwtnNAAycW-2ijWg4gM6-6">
          <mxGeometry x="0.5634" y="-1" relative="1" as="geometry">
            <mxPoint x="13" as="offset" />
          </mxGeometry>
        </mxCell>
        <mxCell id="FwtnNAAycW-2ijWg4gM6-7" value="" style="endArrow=classic;html=1;rounded=0;entryX=0.677;entryY=1.01;entryDx=0;entryDy=0;entryPerimeter=0;exitX=0.01;exitY=0.419;exitDx=0;exitDy=0;exitPerimeter=0;" edge="1" parent="1" source="FwtnNAAycW-2ijWg4gM6-1" target="FwtnNAAycW-2ijWg4gM6-3">
          <mxGeometry width="50" height="50" relative="1" as="geometry">
            <mxPoint x="330" y="730" as="sourcePoint" />
            <mxPoint x="330" y="755" as="targetPoint" />
            <Array as="points">
              <mxPoint x="143" y="755" />
            </Array>
          </mxGeometry>
        </mxCell>
        <mxCell id="FwtnNAAycW-2ijWg4gM6-18" value="Add in follower" style="edgeLabel;html=1;align=center;verticalAlign=middle;resizable=0;points=[];" vertex="1" connectable="0" parent="FwtnNAAycW-2ijWg4gM6-7">
          <mxGeometry x="-0.3921" y="-2" relative="1" as="geometry">
            <mxPoint x="25" y="2" as="offset" />
          </mxGeometry>
        </mxCell>
        <mxCell id="FwtnNAAycW-2ijWg4gM6-8" value="" style="endArrow=classic;html=1;rounded=0;exitX=0.5;exitY=1;exitDx=0;exitDy=0;entryX=0.038;entryY=0.625;entryDx=0;entryDy=0;entryPerimeter=0;" edge="1" parent="1" source="FwtnNAAycW-2ijWg4gM6-3" target="FwtnNAAycW-2ijWg4gM6-1">
          <mxGeometry width="50" height="50" relative="1" as="geometry">
            <mxPoint x="390" y="670" as="sourcePoint" />
            <mxPoint x="440" y="620" as="targetPoint" />
            <Array as="points">
              <mxPoint x="120" y="790" />
            </Array>
          </mxGeometry>
        </mxCell>
        <mxCell id="FwtnNAAycW-2ijWg4gM6-16" value="Comment" style="edgeLabel;html=1;align=center;verticalAlign=middle;resizable=0;points=[];" vertex="1" connectable="0" parent="FwtnNAAycW-2ijWg4gM6-8">
          <mxGeometry x="0.279" y="4" relative="1" as="geometry">
            <mxPoint x="58" y="3" as="offset" />
          </mxGeometry>
        </mxCell>
        <mxCell id="FwtnNAAycW-2ijWg4gM6-9" value="" style="endArrow=classic;html=1;rounded=0;exitX=0.41;exitY=1.009;exitDx=0;exitDy=0;exitPerimeter=0;" edge="1" parent="1" source="FwtnNAAycW-2ijWg4gM6-1">
          <mxGeometry width="50" height="50" relative="1" as="geometry">
            <mxPoint x="390" y="870" as="sourcePoint" />
            <mxPoint x="640" y="1080" as="targetPoint" />
            <Array as="points">
              <mxPoint x="400" y="1080" />
            </Array>
          </mxGeometry>
        </mxCell>
        <mxCell id="FwtnNAAycW-2ijWg4gM6-17" value="Receive comment" style="edgeLabel;html=1;align=center;verticalAlign=middle;resizable=0;points=[];" vertex="1" connectable="0" parent="FwtnNAAycW-2ijWg4gM6-9">
          <mxGeometry x="0.3717" y="-3" relative="1" as="geometry">
            <mxPoint x="22" y="-3" as="offset" />
          </mxGeometry>
        </mxCell>
        <mxCell id="FwtnNAAycW-2ijWg4gM6-10" value="" style="endArrow=classic;html=1;rounded=0;exitX=0;exitY=0.25;exitDx=0;exitDy=0;entryX=0.58;entryY=0.994;entryDx=0;entryDy=0;entryPerimeter=0;" edge="1" parent="1" source="FwtnNAAycW-2ijWg4gM6-2" target="FwtnNAAycW-2ijWg4gM6-1">
          <mxGeometry width="50" height="50" relative="1" as="geometry">
            <mxPoint x="520" y="920" as="sourcePoint" />
            <mxPoint x="570" y="870" as="targetPoint" />
            <Array as="points">
              <mxPoint x="427" y="1055" />
            </Array>
          </mxGeometry>
        </mxCell>
        <mxCell id="FwtnNAAycW-2ijWg4gM6-19" value="Follow request" style="edgeLabel;html=1;align=center;verticalAlign=middle;resizable=0;points=[];" vertex="1" connectable="0" parent="FwtnNAAycW-2ijWg4gM6-10">
          <mxGeometry x="-0.3307" relative="1" as="geometry">
            <mxPoint x="18" as="offset" />
          </mxGeometry>
        </mxCell>
        <mxCell id="FwtnNAAycW-2ijWg4gM6-11" value="" style="endArrow=classic;html=1;rounded=0;exitX=0.93;exitY=0.264;exitDx=0;exitDy=0;exitPerimeter=0;entryX=0.75;entryY=0;entryDx=0;entryDy=0;" edge="1" parent="1" source="FwtnNAAycW-2ijWg4gM6-1" target="FwtnNAAycW-2ijWg4gM6-2">
          <mxGeometry width="50" height="50" relative="1" as="geometry">
            <mxPoint x="580" y="780" as="sourcePoint" />
            <mxPoint x="630" y="730" as="targetPoint" />
            <Array as="points">
              <mxPoint x="730" y="730" />
            </Array>
          </mxGeometry>
        </mxCell>
        <mxCell id="FwtnNAAycW-2ijWg4gM6-13" value="Notification of post like" style="edgeLabel;html=1;align=center;verticalAlign=middle;resizable=0;points=[];" vertex="1" connectable="0" parent="FwtnNAAycW-2ijWg4gM6-11">
          <mxGeometry x="-0.5531" y="1" relative="1" as="geometry">
            <mxPoint as="offset" />
          </mxGeometry>
        </mxCell>
        <mxCell id="FwtnNAAycW-2ijWg4gM6-12" value="" style="endArrow=classic;html=1;rounded=0;exitX=0.985;exitY=0.434;exitDx=0;exitDy=0;exitPerimeter=0;entryX=0.5;entryY=0;entryDx=0;entryDy=0;" edge="1" parent="1" source="FwtnNAAycW-2ijWg4gM6-1" target="FwtnNAAycW-2ijWg4gM6-2">
          <mxGeometry width="50" height="50" relative="1" as="geometry">
            <mxPoint x="560" y="890" as="sourcePoint" />
            <mxPoint x="610" y="840" as="targetPoint" />
            <Array as="points">
              <mxPoint x="700" y="760" />
              <mxPoint x="700" y="900" />
            </Array>
          </mxGeometry>
        </mxCell>
        <mxCell id="FwtnNAAycW-2ijWg4gM6-15" value="Send Message" style="edgeLabel;html=1;align=center;verticalAlign=middle;resizable=0;points=[];" vertex="1" connectable="0" parent="FwtnNAAycW-2ijWg4gM6-12">
          <mxGeometry x="-0.6674" y="1" relative="1" as="geometry">
            <mxPoint x="37" as="offset" />
          </mxGeometry>
        </mxCell>
      </root>
    </mxGraphModel>
  </diagram>
</mxfile>
